<svg width="42" height="40" viewBox="0 0 42 40" fill="none" xmlns="http://www.w3.org/2000/svg">
<g id="ShoppingCart">
<path id="Vector" d="M11.6705 6.34521L16.7511 10.466L18.3838 12.4511L19.4182 13.0918L20.4219 22.7196L18.7192 21.6649C18.2164 21.3534 17.7283 21.2108 17.6364 21.3592C17.5444 21.5076 17.8895 21.8812 18.3923 22.1926L23.3341 25.2538L23.661 24.7261L22.9714 24.299L27.4391 17.0868L29.5077 18.3683L30.2015 23.6662L31.6955 24.5917L32.4458 24.4074L34.3346 21.3583L33.9898 21.1448L34.4257 20.4411L32.357 19.1597L32.4297 19.0425L35.4058 20.3992L36.5681 18.5229L34.0278 16.4625L34.1005 16.3452L36.1691 17.6266L36.605 16.923L36.9498 17.1366L38.8385 14.0876L38.6694 13.3337L37.1754 12.4082L32.1229 14.1466L30.0543 12.8651L34.5219 5.65297L35.2115 6.08012L35.5384 5.5524L30.5966 2.49115C30.0938 2.17968 29.6057 2.03707 29.5137 2.18549C29.4218 2.33391 29.7669 2.70743 30.2697 3.01887L31.9724 4.07364L22.9051 7.46284L21.8708 6.82211L19.3663 6.24429L13.414 3.53072C8.69553 1.90597 8.55251 2.13684 8.40494 2.37506C8.25738 2.61328 8.11436 2.84416 11.6705 6.34521Z" fill="white"/>
<path id="Vector_2" fill-rule="evenodd" clip-rule="evenodd" d="M0.431717 3.61787C-0.374911 5.12376 0.782696 6.01929 3.73841 6.17621L6.36231 6.3149L8.14638 16.1208C9.75496 24.9581 10.0537 26.0331 11.1745 27.0031C12.3938 28.0587 12.6533 28.0794 24.6306 28.0794C32.039 28.0794 37.2026 27.8871 37.758 27.59C39.1524 26.8442 39.2607 25.9919 40.7228 17.7755C41.9292 10.9945 42 10.2655 42 10.2655C40.6691 10.0009 40.4297 9.96547 39.2582 9.7914C38.9815 9.75025 36.7463 22.9502 36.4736 23.9025C36.2489 24.6855 35.3773 24.7382 24.668 24.62L13.1048 24.4918L11.3185 14.6859C9.1829 2.96314 9.03796 2.72729 3.97674 2.72729C1.47438 2.72729 0.821042 2.89137 0.431717 3.61787ZM14.2796 29.3957C13.2392 29.9149 12.2569 30.9422 11.6886 32.1051C10.8574 33.8065 10.8355 34.1568 11.4492 35.9165C12.8692 39.9868 17.5243 41.2151 20.5505 38.3183C23.2519 35.7325 22.7162 31.5138 19.4321 29.513C17.5105 28.3425 16.4381 28.3181 14.2796 29.3957ZM31.1298 29.358C27.1277 31.3288 27.2296 37.6624 31.2907 39.3582C33.3717 40.2269 34.5677 40.2159 36.317 39.3122C40.1798 37.3161 40.0654 31.2058 36.1302 29.3399C34.0788 28.3669 33.1353 28.3703 31.1298 29.358Z" fill="#FFFCFC"/>
</g>
</svg>
