<svg fill="none" height="70" viewBox="0 0 68 70" width="68" xmlns="http://www.w3.org/2000/svg"><g stroke="#fff" stroke-miterlimit="10"><path d="m29.1523 45.7324c3.0808 0 5.5782-2.5708 5.5782-5.7422 0-3.1713-2.4974-5.7422-5.5782-5.7422-3.0807 0-5.5781 2.5709-5.5781 5.7422 0 3.1714 2.4974 5.7422 5.5781 5.7422z" stroke-width="1.5"/><path d="m22.5117 53.6621c3.6675 0 6.6406-3.0605 6.6406-6.8359s-2.9731-6.836-6.6406-6.836-6.6406 3.0606-6.6406 6.836 2.9731 6.8359 6.6406 6.8359z" stroke-width="2"/><path d="m15.207 63.6426c4.9879 0 9.0313-4.1624 9.0313-9.2969s-4.0434-9.2969-9.0313-9.2969c-4.9878 0-9.03122 4.1624-9.03122 9.2969s4.04342 9.2969 9.03122 9.2969z" stroke-width="2.5"/></g><path d="m30.5827 38.8473.7796.8025.7889.8121.4795-.3773c.2722-.2024.5073-.3486.5352-.3186.0186.0192.5352 1.1498 1.1276 2.5129.6016 1.3535 1.1462 2.5526 1.2205 2.6483.085.1257.2723.1066.611-.0875.7982-.4348 1.1926-.8996 1.2391-1.4698.0186-.2707.348-2.3884.7225-4.7086.676-4.1179.6946-4.215 1.1555-4.688.2722-.2803.4794-.4157.4701-.309-.0093.0875-.3479 2.2326-.761 4.766l-.7517 4.6019 1.287.0096c1.0146 0 1.3334-.0574 1.5592-.2898.1501-.1545 2.1781-4.602 4.4983-9.8711l4.2168-9.5799 1.024-1.2277c1.1834-1.4315 1.3056-1.6912.9204-2.0877-.2444-.2516-.2351-.3377.1315-1.0828.348-.6864.7132-1.1211 2.7983-3.3455 1.9909-2.1069 2.6483-2.8999 3.8317-4.5432.7889-1.10197 1.5778-2.2422 1.7558-2.54298.1779-.30078.7225-1.01446 1.2019-1.58594l.8739-1.03496-.7331.73418c-.4037.39648-1.1076.9666-1.5499 1.26601-2.5168 1.68164-4.6206 3.44119-7.1095 5.92679-2.1595 2.1465-2.5832 2.5238-3.2499 2.8806-.7225.3774-.8075.387-1.0519.1354-.3851-.3965-.6388-.2707-2.028.9474l-1.1927 1.0541-9.3061 4.3409c-5.1186 2.3884-9.4377 4.4761-9.5891 4.6306-.2258.2325-.2816.5606-.2816 1.6051l.0093 1.3248 4.4705-.7738c2.461-.4252 4.5448-.7738 4.6298-.7834.1036-.0096-.0278.2023-.3001.484-.4595.473-.5538.4935-4.5542 1.1894-2.2538.3869-4.311.7246-4.574.7438-.5538.0478-1.0054.4539-1.4277 1.2756-.1873.3486-.2072.5414-.085.6289.0942.0779 1.259.6384 2.5725 1.2564 1.3242.6084 2.4225 1.1402 2.4411 1.1608.0279.0287-.1129.2707-.3094.5509l-.3666.4936.7889.8121.7796.8025" fill="#b3b3b3"/></svg>