<svg width="151" height="150" viewBox="0 0 151 150" fill="none" xmlns="http://www.w3.org/2000/svg">
<g id="Logo" clip-path="url(#clip0_540_156)">
<path id="Vector" d="M63.7388 102.002C71.6897 102.002 78.1352 95.4488 78.1352 87.3649C78.1352 79.2809 71.6897 72.7275 63.7388 72.7275C55.7878 72.7275 49.3423 79.2809 49.3423 87.3649C49.3423 95.4488 55.7878 102.002 63.7388 102.002Z" stroke="#101010" stroke-width="3" stroke-miterlimit="10"/>
<path id="Vector_2" d="M46.6001 122.216C56.0655 122.216 63.7388 114.414 63.7388 104.791C63.7388 95.1668 56.0655 87.3652 46.6001 87.3652C37.1347 87.3652 29.4614 95.1668 29.4614 104.791C29.4614 114.414 37.1347 122.216 46.6001 122.216Z" stroke="#101010" stroke-width="4" stroke-miterlimit="10"/>
<path id="Vector_3" d="M27.7476 147.657C40.6205 147.657 51.0562 137.047 51.0562 123.958C51.0562 110.87 40.6205 100.26 27.7476 100.26C14.8746 100.26 4.43896 110.87 4.43896 123.958C4.43896 137.047 14.8746 147.657 27.7476 147.657Z" stroke="#101010" stroke-width="5" stroke-miterlimit="10"/>
<path id="Vector_4" d="M67.4304 84.4517L69.4425 86.4975L71.4786 88.5676L72.716 87.6057C73.4187 87.0899 74.0254 86.717 74.0974 86.7937C74.1454 86.8425 75.4788 89.7246 77.0075 93.1993C78.5603 96.6495 79.9657 99.7059 80.1576 99.9499C80.377 100.27 80.8603 100.222 81.7344 99.7268C83.7944 98.6186 84.8125 97.4336 84.9324 95.9804C84.9804 95.2903 85.8305 89.8919 86.7971 83.9778C88.5419 73.4807 88.5898 73.2333 89.7793 72.0274C90.482 71.313 91.0167 70.968 90.9927 71.2398C90.9687 71.4628 90.0946 76.9309 89.0286 83.3888L87.0885 95.1195L90.41 95.1439C93.0288 95.1439 93.8514 94.9976 94.4341 94.4051C94.8215 94.0113 100.056 82.6743 106.044 69.2428L116.927 44.8229L119.57 41.6933C122.624 38.0444 122.939 37.3823 121.945 36.3716C121.314 35.7303 121.338 35.5108 122.284 33.6114C123.183 31.8619 124.125 30.7536 129.507 25.0834C134.645 19.7129 136.342 17.6916 139.396 13.5025C141.432 10.6935 143.468 7.78697 143.927 7.02025C144.387 6.25702 145.792 4.43432 147.029 2.97756L149.285 0.339355L147.393 2.21084C146.351 3.22152 144.534 4.67479 143.392 5.43802C136.897 9.72467 131.467 14.21 125.044 20.5458C119.47 26.0174 118.377 26.9793 116.656 27.8889C114.791 28.8508 114.572 28.8752 113.941 28.2339C112.947 27.2233 112.293 27.5439 108.707 30.6491L105.629 33.3361L81.611 44.4012C68.4005 50.4896 57.2535 55.8113 56.8627 56.2052C56.28 56.7976 56.1361 57.634 56.1361 60.2966L56.1601 63.6737L67.6978 61.7011C74.0494 60.6173 79.4275 59.7286 79.6469 59.7042C79.9143 59.6798 79.5749 60.22 78.8722 60.9379C77.6862 62.1437 77.4429 62.196 67.1185 63.9699C61.3017 64.9562 55.9921 65.817 55.3134 65.8658C53.884 65.9878 52.7186 67.0229 51.6286 69.1174C51.1453 70.0061 51.0939 70.4975 51.4092 70.7205C51.6526 70.9192 54.6587 72.348 58.0487 73.9233C61.4662 75.4742 64.3009 76.8299 64.3489 76.8821C64.4209 76.9553 64.0576 77.5722 63.5502 78.2866L62.6042 79.5447L64.6403 81.6149L66.6523 83.6606" fill="#303030"/>
</g>
<defs>
<clipPath id="clip0_540_156">
<rect width="150" height="150" fill="white" transform="translate(0.5)"/>
</clipPath>
</defs>
</svg>
