<?xml version="1.0" encoding="UTF-8"?>
<svg id="blue_bg" data-name="blue bg" xmlns="http://www.w3.org/2000/svg" viewBox="0 0 512 512">
  <defs>
    <style>
      .cls-1 {
        fill: #b3b3b3;
      }

      .cls-1, .cls-2 {
        stroke-width: 0px;
      }

      .cls-3 {
        stroke-width: 4px;
      }

      .cls-3, .cls-4, .cls-5 {
        fill: none;
        stroke: #fff;
        stroke-miterlimit: 10;
      }

      .cls-4 {
        stroke-width: 5px;
      }

      .cls-5 {
        stroke-width: 3px;
      }

      .cls-2 {
        fill: #190e4f;
      }
    </style>
  </defs>
  <rect class="cls-2" width="512" height="512"/>
  <circle class="cls-5" cx="219.5" cy="292.5" r="42"/>
  <circle class="cls-3" cx="169.5" cy="342.5" r="50"/>
  <circle class="cls-4" cx="114.5" cy="397.5" r="68"/>
  <path class="cls-1" d="M230.27,284.14l5.87,5.87,5.94,5.94,3.61-2.76c2.05-1.48,3.82-2.55,4.03-2.33.14.14,4.03,8.41,8.49,18.38,4.53,9.9,8.63,18.67,9.19,19.37.64.92,2.05.78,4.6-.64,6.01-3.18,8.98-6.58,9.33-10.75.14-1.98,2.62-17.47,5.44-34.44,5.09-30.12,5.23-30.83,8.7-34.29,2.05-2.05,3.61-3.04,3.54-2.26-.07.64-2.62,16.33-5.73,34.86l-5.66,33.66,9.69.07c7.64,0,10.04-.42,11.74-2.12,1.13-1.13,16.4-33.66,33.87-72.2l31.75-70.07,7.71-8.98c8.91-10.47,9.83-12.37,6.93-15.27-1.84-1.84-1.77-2.47.99-7.92,2.62-5.02,5.37-8.2,21.07-24.47,14.99-15.41,19.94-21.21,28.85-33.23,5.94-8.06,11.88-16.4,13.22-18.6,1.34-2.19,5.44-7.42,9.05-11.6l6.58-7.57-5.52,5.37c-3.04,2.9-8.34,7.07-11.67,9.26-18.95,12.3-34.79,25.17-53.53,43.35-16.26,15.7-19.45,18.46-24.47,21.07-5.44,2.76-6.08,2.83-7.92.99-2.9-2.9-4.81-1.98-15.27,6.93l-8.98,7.71-70.07,31.75c-38.54,17.47-71.06,32.74-72.2,33.87-1.7,1.7-2.12,4.1-2.12,11.74l.07,9.69,33.66-5.66c18.53-3.11,34.22-5.66,34.86-5.73.78-.07-.21,1.48-2.26,3.54-3.46,3.46-4.17,3.61-34.29,8.7-16.97,2.83-32.46,5.3-34.44,5.44-4.17.35-7.57,3.32-10.75,9.33-1.41,2.55-1.56,3.96-.64,4.6.71.57,9.48,4.67,19.37,9.19,9.97,4.45,18.24,8.34,18.38,8.49.21.21-.85,1.98-2.33,4.03l-2.76,3.61,5.94,5.94,5.87,5.87"/>
</svg>