<svg xmlns="http://www.w3.org/2000/svg" width="534" height="161" fill="none" viewBox="0 0 534 161"><mask id="mask0_80_391" style="mask-type:luminance" width="534" height="161" x="0" y="0" maskUnits="userSpaceOnUse"><path fill="#fff" d="M533.065 0H0V160.097H533.065V0Z"/></mask><g mask="url(#mask0_80_391)"><mask id="mask1_80_391" style="mask-type:luminance" width="533" height="168" x="0" y="0" maskUnits="userSpaceOnUse"><path fill="#fff" d="M0 0.0233765H533V167.894H0V0.0233765Z"/></mask><g mask="url(#mask1_80_391)"><mask id="mask2_80_391" style="mask-type:luminance" width="2575" height="3927" x="-148" y="-3041" maskUnits="userSpaceOnUse"><path fill="#fff" d="M-147.036 -3040.37H2426.07V885.418H-147.036V-3040.37Z"/></mask><g mask="url(#mask2_80_391)"><mask id="mask3_80_391" style="mask-type:luminance" width="2574" height="3927" x="-147" y="-3041" maskUnits="userSpaceOnUse"><path fill="#fff" d="M-146.971 -3040.37H2426.2V885.418H-146.971V-3040.37Z"/></mask><g mask="url(#mask3_80_391)"><path fill="#F6F6F6" d="M162.83 159.579L151.341 102.294H138.2L102.876 159.579H116.475L142.108 117.603L145.856 137.08H135.633L128.699 148.439H148.194L150.347 159.579H162.83Z"/><path fill="#F6F6F6" d="M294.988 159.579L283.499 102.294H270.358L235.034 159.579H248.633L274.266 117.603L278.013 137.08H267.795L260.857 148.439H280.352L282.504 159.579H294.988Z"/><path fill="#F6F6F6" d="M230.283 102.294L214.519 159.561H227.768L243.519 102.294H230.283Z"/><path fill="#F6F6F6" d="M356.731 102.294L340.967 159.561H354.215L369.967 102.294H356.731Z"/><path fill="#F6F6F6" d="M472.221 139.929L456.902 102.294H443.692L427.919 159.561H441.15L451.624 121.725L466.822 159.561H480.053L495.826 102.294H482.565L472.221 139.929Z"/><path fill="#F6F6F6" d="M349.093 102.294H300.702L297.464 114.11H315.1L302.63 159.547H315.865L328.336 114.11H345.834L349.093 102.294Z"/><path fill="#F6F6F6" d="M175.863 102.294H163.379L174.869 159.579H188.009L223.333 102.294H209.734L184.102 144.271L175.863 102.294Z"/><path fill="#F6F6F6" d="M413.949 130.976C411.787 139.822 404.491 148.766 394.545 148.766C384.015 148.766 381.154 141.589 383.725 130.902C386.289 120.251 394.67 113.093 403.147 113.093C413.231 113.093 416.858 119.067 413.949 130.976ZM402.792 101.757C387.248 101.757 375.119 113.103 370.857 130.888C366.656 148.439 376.796 160.102 394.355 160.102C412.514 160.102 423.873 145.683 426.86 131.009C430.884 111.205 420.908 101.757 402.792 101.757Z"/><path fill="#F6F6F6" d="M371.263 89.9599L369.115 78.8432H347.757L354.924 67.0876H366.694L362.584 45.7121L335.559 89.9599H322.038L358.499 30.8369H371.86L383.721 89.9599H371.263Z"/><path fill="#F6F6F6" d="M212.764 89.9599L210.616 78.8432H189.258L196.425 67.0876H208.195L204.085 45.7121L177.06 89.9599H163.539L200 30.8369H213.361L225.222 89.9599H212.764Z"/><path fill="#F6F6F6" d="M485.339 89.9599L498.346 42.5692H479.949L483.161 30.8415H533.06L529.827 42.5692H511.573L498.566 89.9599H485.339Z"/><path fill="#F6F6F6" d="M297.784 90.8971C293.293 90.8971 289.282 89.8805 285.863 87.8708C282.405 85.8423 280.127 82.9326 279.085 79.2208L279.007 78.941L289.286 73.1588L289.403 73.4572C290.086 75.2292 291.387 76.8006 293.267 78.1296C295.156 79.4633 297.331 80.1441 299.721 80.1441C302.18 80.1441 304.359 79.5379 306.196 78.3395C308.029 77.1504 309.11 75.6209 309.49 73.6671C309.823 71.965 309.326 70.6594 307.973 69.6662C306.538 68.6123 304.113 67.3859 300.771 66.029C297.296 64.5974 294.434 63.2265 292.269 61.9441C290.064 60.6431 288.296 58.7313 287.013 56.2738C285.716 53.7884 285.439 50.5896 286.187 46.7565C286.857 43.3152 288.4 40.2655 290.778 37.7008C293.133 35.1548 296.038 33.1963 299.414 31.8767C302.781 30.5663 306.339 29.8995 309.987 29.8995C314.772 29.8995 318.814 30.8555 321.991 32.744C325.198 34.6605 327.325 37.5097 328.31 41.2215L328.384 41.5012L318.1 47.2834L317.988 46.9757C317.353 45.269 316.155 43.7722 314.435 42.5318C312.706 41.2867 310.648 40.6526 308.314 40.6526C305.98 40.6526 303.927 41.2448 302.211 42.4059C300.503 43.567 299.496 45.0265 299.137 46.8638C298.891 48.1275 299.107 49.1953 299.803 50.1232C300.525 51.0932 301.519 51.9045 302.751 52.5387C304.009 53.1915 305.872 54.0309 308.288 55.0381C311.668 56.3438 314.452 57.6448 316.566 58.8945C318.714 60.1675 320.439 62.0001 321.684 64.3409C322.946 66.7098 323.236 69.6988 322.544 73.2334C321.485 78.6612 318.667 83.0118 314.167 86.1687C309.693 89.307 304.182 90.8971 297.784 90.8971Z"/><path fill="#F6F6F6" d="M248.525 90.8971C244.033 90.8971 240.022 89.8805 236.603 87.8708C233.145 85.8423 230.863 82.9326 229.825 79.2208L229.743 78.941L240.026 73.1588L240.143 73.4572C240.826 75.2292 242.127 76.8006 244.003 78.1296C245.897 79.4633 248.066 80.1441 250.461 80.1441C252.921 80.1441 255.099 79.5379 256.936 78.3395C258.769 77.1504 259.845 75.6209 260.23 73.6671C260.559 71.965 260.066 70.6594 258.713 69.6662C257.278 68.6123 254.853 67.3906 251.511 66.029C248.032 64.5974 245.17 63.2218 243.009 61.9441C240.805 60.6431 239.037 58.7359 237.753 56.2738C236.456 53.7884 236.175 50.5896 236.927 46.7565C237.597 43.3105 239.14 40.2655 241.518 37.7008C243.874 35.1548 246.778 33.1963 250.154 31.8767C253.521 30.5663 257.079 29.8995 260.723 29.8995C265.512 29.8995 269.549 30.8555 272.727 32.744C275.938 34.6559 278.065 37.5097 279.05 41.2215L279.124 41.5012L268.841 47.2834L268.728 46.9757C268.093 45.269 266.895 43.7722 265.175 42.5318C263.446 41.2867 261.389 40.6526 259.054 40.6526C256.72 40.6526 254.663 41.2448 252.951 42.4059C251.239 43.567 250.236 45.0265 249.878 46.8638C249.631 48.1275 249.847 49.1953 250.543 50.1232C251.265 51.0932 252.259 51.9045 253.491 52.5387C254.749 53.1915 256.612 54.0309 259.028 55.0381C262.409 56.3438 265.188 57.6448 267.306 58.8945C269.454 60.1675 271.179 62.0001 272.424 64.3409C273.686 66.7098 273.976 69.6988 273.284 73.2334C272.225 78.6612 269.407 83.0118 264.907 86.1687C260.433 89.307 254.922 90.8971 248.525 90.8971Z"/><path fill="#F6F6F6" d="M156.307 60.396C154.181 69.2231 146.876 78.1343 136.96 78.1343H126.914L136.687 42.611H145.73C155.823 42.611 159.255 48.1554 156.307 60.396ZM149.689 30.8274H126.702L110.432 89.9691H135.628C160.829 89.9691 167.243 68.7662 169.132 60.4006C171.618 49.3911 169.314 42.2799 165.951 37.8687C162.718 33.63 158.304 30.8274 149.689 30.8274Z"/><path fill="#F6F6F6" d="M468.542 30.8368H455.35L439.049 89.9645H474.49L477.706 78.2089H455.531L468.542 30.8368Z"/><path fill="#F6F6F6" d="M422.654 67.1575C421.703 71.0185 420.316 73.7464 418.28 75.7422C416.131 77.8546 413.252 78.9224 409.717 78.9224C406.31 78.9224 404.033 77.9012 402.943 75.8914C401.841 73.8537 401.694 71.0325 402.507 67.4932L412.695 30.8136H399.472L389.405 66.9803C387.481 74.8003 388.242 80.7597 391.653 84.7C395.02 88.5843 400.242 90.5568 407.171 90.5568C413.992 90.5568 420.104 88.6169 425.33 84.7839C430.197 81.226 433.534 75.6723 435.829 67.316L445.879 30.8136H432.665L422.654 67.1575Z"/><path fill="#F6F6F6" d="M91.4521 3.05176e-05C48.0235 76.8101 0 116.586 0 116.586C13.1232 125.954 18.1979 137.817 18.1979 137.817L24.578 132.436C23.0262 129.293 18.8679 122.317 12.2285 116.581C25.1486 104.178 52.9555 74.9914 81.4065 30.8322C78.7222 55.5045 77.7366 88.7428 82.4007 115.094C71.4473 119.584 43.2471 136.012 33.0242 159.579H42.7759C58.6094 129.745 90.7432 120.433 90.7432 120.433C80.8921 58.3956 91.4521 3.05176e-05 91.4521 3.05176e-05Z"/><path fill="#F6F6F6" fill-rule="evenodd" d="M55.8126 89.3863C57.2132 87.9501 61.0516 87.3998 63.0313 89.3956C65.2401 91.6199 64.6868 94.1799 63.1783 96.0311C60.9824 98.7311 52.8085 105.008 50.6645 106.434H49.2251C48.7021 105.688 45.6114 100.428 44.976 97.9617C44.2974 95.341 44.4184 92.0396 47.12 89.6754C49.8432 87.2739 52.9209 87.3905 55.8126 89.3863Z" clip-rule="evenodd"/><path fill="#F6F6F6" fill-rule="evenodd" d="M69.2214 109.997C71.5426 108.855 73.4791 105.768 72.446 102.732C71.4475 99.8222 68.3439 99.7803 66.2 100.624C62.2319 102.182 53.9801 107.829 52.5926 108.934L52.0825 110.393C53.0162 111.886 55.9944 115.728 57.9914 117.393C59.9928 119.057 62.9148 120.041 65.8714 118.255C68.9275 116.413 69.9087 112.958 69.2214 109.997Z" clip-rule="evenodd"/><path fill="#F6F6F6" fill-rule="evenodd" d="M43.2515 129.717C41.8424 131.139 37.9867 131.69 35.994 129.708C33.7722 127.493 34.3298 124.951 35.847 123.114C38.0515 120.428 46.2687 114.194 48.4256 112.776H49.8737C50.3967 113.518 53.5089 118.745 54.1486 121.193C54.8273 123.8 54.7106 127.078 51.9917 129.428C49.2512 131.815 46.1606 131.699 43.2515 129.717Z" clip-rule="evenodd"/><path fill="#F6F6F6" fill-rule="evenodd" d="M29.9077 109.092C27.5865 110.235 25.6457 113.322 26.6831 116.357C27.6816 119.272 30.7852 119.309 32.9335 118.465C36.8973 116.908 45.1447 111.261 46.5365 110.156L47.0466 108.696C46.1129 107.204 43.1347 103.357 41.1377 101.697C39.1363 100.032 36.2143 99.0528 33.262 100.834C30.2016 102.676 29.2204 106.131 29.9077 109.092Z" clip-rule="evenodd"/></g></g></g></g></svg>